# xmcd
#
# Track frame offsets: 
#        200
#        11525
#        25025
#        41225
#        53375
#        67025
#        82325
#        98600
#        108350
#        119975
#        131900
#        147950
#        165950
#
# Disc length: 2402 seconds
#
# Revision: 2
# Processed by: cddbd v1.5.2PL0 Copyright (c) Steve Scherf et al.
# Submitted via: ExactAudioCopy v0.99pb5
#
DISCID=b109600d
DTITLE=Mitch Ryder and The Detroit Wheels - Take A Ride
DYEAR=1993
DGENRE=Rock
TTITLE0=Shake A Tail Feather
TTITLE1=Come See About Me
TTITLE2=Let Your Lovelight Shine
TTITLE3=Just A Little Bit
TTITLE4=I Hope
TTITLE5=Jenny Take A Ride
TTITLE6=Please, Please, Please
TTITLE7=I'll Go Crazy
TTITLE8=I Got You
TTITLE9=Sticks And Stones
TTITLE10=Bring It On Home To Me
TTITLE11=Baby Jane (Mo-Mo Jane)
TTITLE12=Joy
EXTD=
EXTT0=
EXTT1=
EXTT2=
EXTT3=
EXTT4=
EXTT5=
EXTT6=
EXTT7=
EXTT8=
EXTT9=
EXTT10=
EXTT11=
EXTT12=
PLAYORDER=
